# xmcd CD database file
#
# Track frame offsets:
#	150
#	16538
#	36420
#	50394
#	83480
#	104774
#	124110
#
# Disc length: 1977 seconds
#
# Revision: 0
# Processed by: cddbd v1.4PL0 Copyright (c) Steve Scherf et al.
# Submitted via: CDex 1.40Beta9
#
DISCID=4e07b707
DTITLE=Steve Polezonis and Friends - Berlin Blues Fest
DYEAR=2003
DGENRE=Blues
TTITLE0=Jack Of All Trades
TTITLE1=I Don't Care
TTITLE2=I Got My Own Blues
TTITLE3=Looks Like Your Doing Fine
TTITLE4=I got A New Woman
TTITLE5=I'm Your Personal Doctor
TTITLE6=Free Chicken and Beer
EXTD=YEAR: 2003 ID3G: 0
EXTT0=
EXTT1=
EXTT2=
EXTT3=
EXTT4=
EXTT5=
EXTT6=
PLAYORDER=
